<?xml version="1.0" encoding="UTF-8"?>
<svg width="82px" height="39px" viewBox="0 0 82 39" version="1.1" xmlns="http://www.w3.org/2000/svg" xmlns:xlink="http://www.w3.org/1999/xlink">
    <title>Cushon Logo</title>
    <g id="Letter-Template" stroke="none" stroke-width="1" fill="none" fill-rule="evenodd">
        <g id="A4" transform="translate(-493.000000, -16.000000)">
            <g id="Group-2" transform="translate(493.000000, 16.000000)">
                <g id="Group" transform="translate(60.000000, 0.000000)">
                    <path d="M4.87442029,3.22854982 C6.58923056,4.08919035 6.98032764,8.91492471 11.1319736,11.0972632 C11.4027331,10.8513659 11.6734926,10.6054686 11.9743365,10.3595713 C18.5026493,4.58098493 20.8793162,8.08502135 20.8793162,8.08502135 L20.9094005,8.08502135 C19.7361093,3.62813292 15.8251385,0.216307992 11.011636,0.0318850224 C6.73965251,-0.121800785 2.94901928,2.30643498 1.14395584,5.9641572 C2.25707829,3.99697886 3.55070709,2.58306943 4.87442029,3.22854982 Z" id="Path"></path>
                    <path d="M10.2294418,19.2733482 C8.24387205,18.4434448 7.16083398,16.6914266 6.22821787,15.062357 C4.30281686,16.384055 3.37020075,16.4762665 2.19690951,16.384055 C1.92615,16.3533178 1.62530609,16.2611063 1.29437779,16.1074205 C3.03927245,19.3348225 6.34855543,21.5786353 10.1993574,21.7323211 C12.2150116,21.7937954 14.1103282,21.3020008 15.7348853,20.379886 C14.170497,20.5643089 12.4857711,20.2262002 10.2294418,19.2733482 Z" id="Path" fill="#E94190" fill-rule="nonzero"></path>
                    <path d="M6.22821787,15.062357 C5.17526419,13.1873902 4.30281686,11.435372 2.46766903,11.3431605 C1.32446218,11.3124233 0.602436804,11.9886409 0.181255333,12.8492814 C0.391846068,13.9865564 0.782943148,15.0930942 1.32446218,16.0766834 C1.65539048,16.2303692 1.95623439,16.3533178 2.2269939,16.3533178 C3.37020075,16.4762665 4.30281686,16.384055 6.22821787,15.062357 Z" id="Path" fill="#EC64A1" fill-rule="nonzero"></path>
                    <path d="M14.2908346,12.1115895 C13.0272902,11.9271665 12.0044209,11.5890578 11.1319736,11.1280003 C8.93581303,13.0337044 7.40150911,14.2631908 6.22821787,15.062357 C7.16083398,16.6914266 8.21378766,18.4434448 10.2294418,19.2733482 C12.4857711,20.195463 14.170497,20.5643089 15.7649697,20.3491488 C18.8937464,18.5663934 21.0899069,15.1853057 21.2403288,11.250949 C21.2704132,10.2058855 21.1801601,9.160822 20.9394849,8.20797 L20.8793162,8.08502135 C20.8793162,8.11575851 21.5110884,13.0951787 14.2908346,12.1115895 Z" id="Path" fill="#A96BAA" fill-rule="nonzero"></path>
                    <path d="M20.8793162,8.11575851 C20.8793162,8.11575851 18.5026493,4.61172209 11.9743365,10.3903085 C11.6734926,10.6362058 11.4027331,10.8821031 11.1319736,11.1280003 C12.0044209,11.5890578 13.0272902,11.9271665 14.2908346,12.1115895 C21.5110884,13.0951787 20.8793162,8.11575851 20.8793162,8.11575851 Z" id="Path" fill="#CB2A87" fill-rule="nonzero"></path>
                    <path d="M2.49775342,11.3431605 C4.33290125,11.4046348 5.20534858,13.156653 6.25830226,15.062357 C7.4315935,14.2631908 8.96589743,13.0337044 11.1620579,11.1280003 C7.01041203,8.91492471 6.61931495,4.08919035 4.90450468,3.25928699 C3.58079149,2.61380659 2.28716268,3.99697886 1.20412462,5.99489436 C0.542268022,7.34732947 0.121086552,8.88418755 0.0609177704,10.48252 C0.0308333797,11.3124233 0.0910021612,12.1115895 0.241424115,12.8800186 C0.632521194,12.019378 1.32446218,11.3124233 2.49775342,11.3431605 Z" id="Path" fill="#00AEEA" fill-rule="nonzero"></path>
                </g>
                <path d="M6.48477752,39 C8.06791569,39 9.47599532,38.5367485 10.7090164,37.6102456 C10.9982436,37.3958482 11.1428571,37.1737938 11.1428571,36.9440823 C11.1428571,36.7143709 11.0857728,36.496145 10.9716042,36.2894047 L10.9716042,36.2894047 L10.743267,35.8414673 C10.5605972,35.5122142 10.3474824,35.3475876 10.1039227,35.3475876 C9.860363,35.3475876 9.62822014,35.4126725 9.40749415,35.5428424 C8.56264637,36.1477493 7.63026932,36.4502027 6.610363,36.4502027 C5.59045667,36.4502027 4.73799766,36.0864929 4.05298595,35.3590732 C3.36797424,34.6316536 3.02546838,33.7434359 3.02546838,32.6944202 C3.02546838,31.6454044 3.35846019,30.7629295 4.02444379,30.0469955 C4.6904274,29.3310614 5.49912178,28.9730943 6.45052693,28.9730943 C7.40193208,28.9730943 8.23916862,29.2181199 8.96223653,29.7081711 C9.19057377,29.8306838 9.39607728,29.8919402 9.57874707,29.8919402 C9.81469555,29.9378825 10.0468384,29.7885701 10.2751756,29.4440029 L10.2751756,29.4440029 L10.5720141,28.9730943 C10.7318501,28.7280688 10.8117681,28.4907003 10.8117681,28.2609888 C10.8117681,28.0312773 10.6709602,27.8207085 10.3893443,27.6292823 C9.26288056,26.8329492 7.96135831,26.4347826 6.48477752,26.4347826 C5.51814988,26.4347826 4.62573185,26.6032377 3.80752342,26.9401478 C2.98931499,27.277058 2.30430328,27.7307382 1.75248829,28.3011883 C1.2006733,28.8716384 0.770638173,29.5378017 0.462382904,30.2996781 C0.154127635,31.0615545 0,31.8712874 0,32.7288769 C0,33.5864664 0.152224824,34.3981136 0.456674473,35.1638185 C0.768735363,35.9295234 1.2006733,36.5956866 1.75248829,37.1623082 C2.30430328,37.7289299 2.98931499,38.1768672 3.80752342,38.5061203 C4.62573185,38.8353734 5.51814988,39 6.48477752,39 Z M17.5085714,39 C18.4609524,39 19.312381,38.7414081 20.0628571,38.2242242 C20.8133333,37.7070403 21.3447619,37.1036591 21.6571429,36.4140806 L21.6571429,36.4140806 L21.7028571,36.4140806 L21.6571429,36.9782812 L21.6571429,37.6952861 C21.6571429,38.3691924 21.9771429,38.7061455 22.6171429,38.7061455 L22.6171429,38.7061455 L23.5314286,38.7061455 C24.1866667,38.7061455 24.5142857,38.3691924 24.5142857,37.6952861 L24.5142857,37.6952861 L24.5142857,27.445642 C24.5142857,27.1243611 24.4285714,26.8755643 24.2571429,26.6992516 C24.0857143,26.522939 23.8438095,26.4347826 23.5314286,26.4347826 L23.5314286,26.4347826 L22.5142857,26.4347826 C21.8590476,26.4347826 21.5314286,26.7717357 21.5314286,27.445642 L21.5314286,27.445642 L21.5314286,32.0650344 C21.5314286,33.2169439 21.232381,34.1944998 20.6342857,34.997702 C20.0361905,35.8009043 19.2228571,36.2025054 18.1942857,36.2025054 C17.5009524,36.2025054 17.0190476,35.9889711 16.7485714,35.5619026 C16.4780952,35.1348341 16.3428571,34.5138217 16.3428571,33.6988653 L16.3428571,33.6988653 L16.3428571,27.445642 C16.3428571,26.7717357 16.0152381,26.4347826 15.36,26.4347826 L15.36,26.4347826 L14.3542857,26.4347826 C14.0419048,26.4347826 13.8,26.522939 13.6285714,26.6992516 C13.4571429,26.8755643 13.3714286,27.1243611 13.3714286,27.445642 L13.3714286,27.445642 L13.3714286,34.3218367 C13.3714286,37.4406122 14.7504762,39 17.5085714,39 Z M31.0805289,39 C32.4852322,39 33.599177,38.6516043 34.4223633,37.9548128 C35.2455497,37.2580214 35.6571429,36.3698037 35.6571429,35.2901598 C35.6571429,34.2105159 35.305967,33.4103542 34.6036154,32.8896749 C33.9012637,32.3689956 33.2045762,31.9938002 32.5135528,31.7640887 C31.8225294,31.5343772 31.1956995,31.3084943 30.6330629,31.0864399 C30.0704264,30.8643854 29.7891081,30.5045041 29.7891081,30.006796 C29.7891081,29.225777 30.3517447,28.8352675 31.4770177,28.8352675 C32.0509825,28.8352675 32.7722146,29.0305222 33.6407139,29.4210317 C33.8446225,29.5129163 34.0296506,29.5588586 34.1957983,29.5588586 C34.5129894,29.5588586 34.7584348,29.386575 34.9321347,29.0420078 L34.9321347,29.0420078 L35.170028,28.6170416 C35.2682062,28.4026442 35.3172953,28.1767613 35.3172953,27.9393927 C35.3172953,27.7020242 35.1511476,27.4914554 34.8188522,27.3076862 C33.7993095,26.7257505 32.6702603,26.4347826 31.4317047,26.4347826 C30.1931491,26.4347826 29.1452858,26.7506359 28.2881147,27.3823424 C27.4309436,28.014049 27.002358,28.8850383 27.002358,29.9953104 C27.002358,31.1132395 27.3535339,31.9363723 28.0558855,32.4647087 C28.7582372,32.9930451 29.4549247,33.3739833 30.1459481,33.6075232 C30.8369715,33.8410632 31.4638014,34.072689 32.026438,34.3024004 C32.5890745,34.5321119 32.8703928,34.8881647 32.8703928,35.3705588 C32.8703928,36.189863 32.2737715,36.5995151 31.0805289,36.5995151 C30.4763554,36.5995151 29.9779123,36.5018878 29.5851996,36.306633 C29.1924868,36.1113783 28.8677436,35.9410089 28.6109699,35.795525 C28.3541962,35.6500411 28.1729441,35.5772991 28.0672138,35.5772991 C27.7349184,35.5772991 27.4668164,35.7189545 27.2629078,36.0022653 L27.2629078,36.0022653 L26.9797015,36.4272315 C26.8286582,36.6416289 26.7531365,36.8521978 26.7531365,37.0589381 C26.7002713,37.3345918 26.8513147,37.5719604 27.2062666,37.7710436 C28.3844048,38.5903479 29.6758256,39 31.0805289,39 Z M39.8540972,39 C40.5026831,39 40.8269761,38.6648326 40.8269761,37.9944979 L40.8269761,37.9944979 L40.8269761,33.329436 C40.8269761,32.152453 41.1399565,31.1839752 41.7659173,30.4240028 C42.3918782,29.6640303 43.2139231,29.284044 44.2320522,29.284044 C44.9258883,29.284044 45.4085569,29.4964466 45.680058,29.9212517 C45.9515591,30.3460569 46.0873096,30.9637781 46.0873096,31.7744154 L46.0873096,31.7744154 L46.0873096,37.9944979 C46.0873096,38.6648326 46.4116026,39 47.0601885,39 L47.0601885,39 L48.0556925,39 C48.7042785,39 49.0285714,38.6648326 49.0285714,37.9944979 L49.0285714,37.9944979 L49.0285714,31.1430536 C49.0285714,28.0486016 47.6559826,26.5013755 44.9108049,26.5013755 C43.9680928,26.5013755 43.129079,26.7488537 42.3937636,27.2438102 C41.6584482,27.7387666 41.1286439,28.3136176 40.804351,28.9683631 L40.804351,28.9683631 L40.7591008,28.9683631 C40.804351,28.5006878 40.8269761,28.1577258 40.8269761,27.9394773 L40.8269761,27.9394773 L40.8269761,23.0055021 C40.8269761,22.3351674 40.5026831,22 39.8540972,22 L39.8540972,22 L38.8585932,22 C38.5493836,22 38.3099347,22.0876891 38.1402466,22.2630674 C37.9705584,22.4384457 37.8857143,22.6859239 37.8857143,23.0055021 L37.8857143,23.0055021 L37.8857143,37.9944979 C37.8857143,38.6648326 38.2100073,39 38.8585932,39 L38.8585932,39 L39.8540972,39 Z M57.9370384,39 C59.1628497,39 60.2839239,38.7358318 61.3002611,38.2074954 C62.3165983,37.679159 63.125401,36.9306825 63.7266692,35.9620658 C64.3279373,34.9934491 64.6285714,33.9118909 64.6285714,32.7173913 C64.6285714,31.5228917 64.3279373,30.4432478 63.7266692,29.4784596 C63.125401,28.5136714 62.3146587,27.7651949 61.2944424,27.23303 C60.274226,26.7008651 59.1550914,26.4347826 57.9370384,26.4347826 C56.7189855,26.4347826 55.5998508,26.7008651 54.5796345,27.23303 C53.5594181,27.7651949 52.7506154,28.5136714 52.1532264,29.4784596 C51.5558374,30.4432478 51.2571429,31.5228917 51.2571429,32.7173913 C51.2571429,33.9118909 51.5558374,34.9953634 52.1532264,35.9678086 C52.7583737,36.9325968 53.5671764,37.679159 54.5796345,38.2074954 C55.5920925,38.7358318 56.7112272,39 57.9370384,39 Z M57.9308756,36.0434783 C56.8924731,36.0434783 56.0158218,35.6971883 55.3009217,35.0046083 C54.5860215,34.3120283 54.2285714,33.4283265 54.2285714,32.353503 C54.2285714,31.2786794 54.5840246,30.3930853 55.2949309,29.6967208 C56.0138249,29.0003562 56.8924731,28.6521739 57.9308756,28.6521739 C58.969278,28.6521739 59.8499232,29.0003562 60.5728111,29.6967208 C61.2956989,30.3930853 61.6571429,31.2786794 61.6571429,32.353503 C61.6571429,33.4283265 61.2956989,34.3120283 60.5728111,35.0046083 C59.8499232,35.6971883 58.969278,36.0434783 57.9308756,36.0434783 Z M68.8295306,39 C69.464322,39 69.7817178,38.6630469 69.7817178,37.9891406 L69.7817178,37.9891406 L69.7817178,33.2522065 C69.7817178,32.1159691 70.095335,31.1619216 70.7225694,30.3900639 C71.3498038,29.6182061 72.1735213,29.2322772 73.1937218,29.2322772 C73.8889696,29.2322772 74.3726203,29.4458115 74.6446737,29.87288 C74.9167272,30.2999485 75.052754,30.9209609 75.052754,31.7359174 L75.052754,31.7359174 L75.052754,37.9891406 C75.052754,38.6630469 75.3777067,39 76.0276123,39 L76.0276123,39 L77.0251417,39 C77.6750472,39 78,38.6630469 78,37.9891406 L78,37.9891406 L78,31.1011917 C78,27.9902523 76.6246185,26.4347826 73.8738555,26.4347826 C73.412876,26.4347826 72.7516349,26.5582015 71.8901322,26.8050392 C71.0286296,27.051877 70.2880395,27.7943493 69.6683622,29.0324562 L69.6683622,29.0324562 L69.6230199,29.0324562 L69.6683622,28.4800098 L69.6683622,27.7394965 C69.6683622,27.0655902 69.3509664,26.7286371 68.716175,26.7286371 L68.716175,26.7286371 L67.80933,26.7286371 C67.1745386,26.7286371 66.8571429,27.0655902 66.8571429,27.7394965 L66.8571429,27.7394965 L66.8571429,37.9891406 C66.8571429,38.6630469 67.1745386,39 67.80933,39 L67.80933,39 L68.8295306,39 Z" id="cushon" fill="#E52D8F" fill-rule="nonzero"></path>
            </g>
        </g>
    </g>
</svg>